<!DOCTYPE svg PUBLIC "-//W3C//DTD SVG 1.1//EN" "https://www.w3.org/Graphics/SVG/1.1/DTD/svg11.dtd"><svg xmlns="http://www.w3.org/2000/svg" id="sfn-svg" class="sfn-workflow-graph" width="499" height="503">  
<g transform="translate(12,19.265625)"><g class="nodes"><g class="node-container" transform="translate(191.2109375,18.390625)"><g class="node anchor"><circle class="shape" x="-15.65625" y="-8.390625" r="25.65625"/><text class="label"><tspan xml:space="preserve" text-anchor="middle" alignment-baseline="central">Start</tspan></text></g></g><g class="node-container" transform="translate(191.2109375,449.078125)"><g class="node anchor"><circle class="shape" x="-12.1875" y="-8.390625" r="22.1875"/><text class="label"><tspan xml:space="preserve" text-anchor="middle" alignment-baseline="central">End</tspan></text></g></g><g class="node-container" transform="translate(191.2109375,80.171875)"><g class="node state Task Succeeded"><rect class="shape" rx="5" ry="5" x="-77.5625" y="-18.390625" width="155.125" height="36.78125"/><text class="label"><tspan xml:space="preserve" text-anchor="middle" alignment-baseline="central">PayAndWaitPostback</tspan></text></g></g><g class="node-container" transform="translate(191.2109375,141.953125)"><g class="node state Choice Succeeded"><rect class="shape" rx="5" ry="5" x="-50.328125" y="-18.390625" width="100.65625" height="36.78125"/><text class="label"><tspan xml:space="preserve" text-anchor="middle" alignment-baseline="central">PaymentOk?</tspan></text></g></g><g class="node-container" transform="translate(297.296875,233.734375)"><g class="node state Parallel Container NotYetStarted" transform="translate(-177.171875,-48.390625)"><rect class="shape" rx="19.35625" ry="19.35625" x="0" y="0" width="354.34375" height="96.78125"/><g class="branches" transform="translate(20,40)"><g class="branch" transform="translate(0,0)"><g class="nodes"><g class="node-container" transform="translate(67.03125,18.390625)"><g class="node state Task NotYetStarted"><rect class="shape" rx="5" ry="5" x="-67.03125" y="-18.390625" width="134.0625" height="36.78125"/><text class="label"><tspan xml:space="preserve" text-anchor="middle" alignment-baseline="central">NotifyPaymentOk</tspan></text></g></g></g><g class="edges"/></g><g class="branch" transform="translate(154.0625,0)"><g class="nodes"><g class="node-container" transform="translate(80.140625,18.390625)"><g class="node state Task NotYetStarted"><rect class="shape" rx="5" ry="5" x="-80.140625" y="-18.390625" width="160.28125" height="36.78125"/><text class="label"><tspan xml:space="preserve" text-anchor="middle" alignment-baseline="central">ShipAndWaitPostback</tspan></text></g></g></g><g class="edges"/></g></g><path class="path" marker-end="url(#arrowhead1)" d="M177.171875,0L177.171875,3.333333333333333C177.171875,6.666666666666666,177.171875,13.333333333333332,162.1484375,16.666666666666664C147.125,20,117.078125,20,102.05468749999999,23.33333333333333C87.03125,26.666666666666664,87.03125,33.33333333333333,87.03124999999999,36.666666666666664L87.03125,40" style="fill: none;"/><path class="path" marker-end="url(#arrowhead2)" d="M177.171875,0L177.171875,3.333333333333333C177.171875,6.666666666666666,177.171875,13.333333333333332,190.01041666666666,16.666666666666664C202.84895833333331,20,228.52604166666666,20,241.36458333333334,23.33333333333333C254.203125,26.666666666666664,254.203125,33.33333333333333,254.203125,36.666666666666664L254.203125,40" style="fill: none;"/></g></g><g class="node-container" transform="translate(85.125,387.296875)"><g class="node state Task Succeeded"><rect class="shape" rx="5" ry="5" x="-85.125" y="-18.390625" width="170.25" height="36.78125"/><text class="label"><tspan xml:space="preserve" text-anchor="middle" alignment-baseline="central">NotifyPaymentRejected</tspan></text></g></g><g class="node-container" transform="translate(297.296875,325.515625)"><g class="node state Pass NotYetStarted"><rect class="shape" rx="5" ry="5" x="-38.140625" y="-18.390625" width="76.28125" height="36.78125"/><text class="label"><tspan xml:space="preserve" text-anchor="middle" alignment-baseline="central">GetInput</tspan></text></g></g><g class="node-container" transform="translate(297.296875,387.296875)"><g class="node state Task NotYetStarted"><rect class="shape" rx="5" ry="5" x="-60.484375" y="-18.390625" width="120.96875" height="36.78125"/><text class="label"><tspan xml:space="preserve" text-anchor="middle" alignment-baseline="central">NotifyShipment</tspan></text></g></g></g><g class="edges"><g class="edge"><path class="path" marker-end="url(#arrowhead3)" d="M191.2109375,98.5625L191.2109375,100.64583333333331C191.2109375,102.72916666666666,191.2109375,106.89583333333331,191.2109375,111.06249999999999C191.2109375,115.22916666666666,191.2109375,119.39583333333333,191.2109375,121.47916666666666L191.2109375,123.5625" style="fill: none;"/><defs><marker id="arrowhead3" viewBox="0 0 10 10" refX="9" refY="5" markerUnits="strokeWidth" markerWidth="8" markerHeight="6" orient="auto"><path d="M 0 0 L 10 5 L 0 10 z"/></marker></defs></g><g class="edge"><path class="path" marker-end="url(#arrowhead4)" d="M191.2109375,44.046875L191.2109375,44.91927083333333C191.2109375,45.791666666666664,191.2109375,47.53645833333333,191.2109375,50.4921875C191.2109375,53.447916666666664,191.2109375,57.61458333333333,191.2109375,59.697916666666664L191.2109375,61.78125" style="fill: none;"/><defs><marker id="arrowhead4" viewBox="0 0 10 10" refX="9" refY="5" markerUnits="strokeWidth" markerWidth="8" markerHeight="6" orient="auto"><path d="M 0 0 L 10 5 L 0 10 z"/></marker></defs></g><g class="edge"><path class="path" marker-end="url(#arrowhead5)" d="M241.5390625,156.60791594557773L250.83203124999997,159.31388828798143C260.125,162.01986063038515,278.7109375,167.43180531519255,288.00390625,172.22111099092962C297.296875,177.01041666666666,297.296875,181.17708333333331,297.296875,183.26041666666666L297.296875,185.34375" style="fill: none;"/><defs><marker id="arrowhead5" viewBox="0 0 10 10" refX="9" refY="5" markerUnits="strokeWidth" markerWidth="8" markerHeight="6" orient="auto"><path d="M 0 0 L 10 5 L 0 10 z"/></marker></defs></g><g class="edge"><path class="path" marker-end="url(#arrowhead6)" d="M140.8828125,156.60791594557773L131.58984375,159.31388828798143C122.296875,162.01986063038515,103.7109375,167.43180531519255,94.41796875,180.28621515759627C85.125,193.140625,85.125,213.4375,85.125,233.73437499999997C85.125,254.03125,85.125,274.328125,85.125,289.625C85.125,304.921875,85.125,315.21875,85.125,325.515625C85.125,335.8125,85.125,346.109375,85.125,353.3411458333333C85.125,360.57291666666663,85.125,364.7395833333333,85.125,366.8229166666667L85.125,368.90625" style="fill: none;"/><defs><marker id="arrowhead6" viewBox="0 0 10 10" refX="9" refY="5" markerUnits="strokeWidth" markerWidth="8" markerHeight="6" orient="auto"><path d="M 0 0 L 10 5 L 0 10 z"/></marker></defs></g><g class="edge"><path class="path" marker-end="url(#arrowhead7)" d="M85.125,405.6875L85.125,407.77083333333326C85.125,409.85416666666663,85.125,414.02083333333326,99.25553016986231,420.21876393389067C113.38606033972464,426.4166945344481,141.64712067944927,434.6458890688962,155.77765084931158,438.76048633612027L169.90818101917392,442.8750836033444" style="fill: none;"/><defs><marker id="arrowhead7" viewBox="0 0 10 10" refX="9" refY="5" markerUnits="strokeWidth" markerWidth="8" markerHeight="6" orient="auto"><path d="M 0 0 L 10 5 L 0 10 z"/></marker></defs></g><g class="edge"><path class="path" marker-end="url(#arrowhead8)" d="M297.296875,282.125L297.296875,284.2083333333333C297.296875,286.29166666666663,297.296875,290.4583333333333,297.296875,294.625C297.296875,298.79166666666663,297.296875,302.9583333333333,297.296875,305.04166666666663L297.296875,307.125" style="fill: none;"/><defs><marker id="arrowhead8" viewBox="0 0 10 10" refX="9" refY="5" markerUnits="strokeWidth" markerWidth="8" markerHeight="6" orient="auto"><path d="M 0 0 L 10 5 L 0 10 z"/></marker></defs></g><g class="edge"><path class="path" marker-end="url(#arrowhead9)" d="M297.296875,343.90625L297.296875,345.9895833333333C297.296875,348.07291666666663,297.296875,352.2395833333333,297.296875,356.40625C297.296875,360.57291666666663,297.296875,364.7395833333333,297.296875,366.8229166666667L297.296875,368.90625" style="fill: none;"/><defs><marker id="arrowhead9" viewBox="0 0 10 10" refX="9" refY="5" markerUnits="strokeWidth" markerWidth="8" markerHeight="6" orient="auto"><path d="M 0 0 L 10 5 L 0 10 z"/></marker></defs></g><g class="edge"><path class="path" marker-end="url(#arrowhead10)" d="M297.296875,405.6875L297.296875,407.77083333333326C297.296875,409.85416666666663,297.296875,414.02083333333326,283.16634483013763,420.21876393389067C269.0358146602754,426.4166945344481,240.7747543205507,434.6458890688962,226.6442241506884,438.76048633612027L212.51369398082608,442.8750836033444" style="fill: none;"/><defs><marker id="arrowhead10" viewBox="0 0 10 10" refX="9" refY="5" markerUnits="strokeWidth" markerWidth="8" markerHeight="6" orient="auto"><path d="M 0 0 L 10 5 L 0 10 z"/></marker></defs></g></g></g><style xmlns="http://www.w3.org/1999/xhtml">.node &gt; .shape {stroke: #555555;stroke-width: 0.6px;fill: #FFFFFF;} path {stroke: #555;background-color: #555;stroke-width: 1px;} .node.state.NotYetStarted &gt; .shape,.node.state.Container &gt; .shape {stroke-dasharray: 5 2;} .node.state.Failed &gt; .shape,rect.legend.Failed {fill: #DE322F;} .node.state.CaughtError &gt; .shape,rect.legend.CaughtError {fill: #FFA500;} .node.state.Succeeded &gt; .shape,rect.legend.Succeeded {fill: #2BD62E;} .node.state.InProgress &gt; .shape,rect.legend.InProgress {fill: #53c9ed;} .node.state.Cancelled &gt; .shape,rect.legend.Cancelled {fill: #dddddd;} .node.anchor &gt; .shape {fill: #FFDA75;} .node.state.hovered:not(.selected):not(.NotYetStarted) &gt; .shape,.node.selected &gt; .shape {stroke: #555555;stroke-width: 2px;} .node.state.Container.Failed &gt; .shape {fill: #EE9592;} .node.state.Container.CaughtError &gt; .shape {fill: #FFD27F;} .node.state.Container.Succeeded &gt; .shape {fill: #91EA9A;} .node.state.Container.InProgress &gt; .shape {fill :#A9E4F7;} .node.state.Container.Cancelled &gt; .shape {fill: #EEEEEE;} marker {fill: #555555;} .node.anchor,.node.state.NotYetStarted {cursor: default;} .node.state {cursor: pointer;} tspan .label {font-weight: normal;font-size: 12px;text-shadow: none;} </style></svg>